<svg width="1700" height="53" viewBox="0 0 1700 53" fill="none" xmlns="http://www.w3.org/2000/svg">
<path d="M1699.5 52.81C1699.46 52.8101 1699.42 52.8054 1699.38 52.796L1557.8 18.088C1464.87 -4.69561 1367.8 -4.69561 1274.87 18.088C1228.49 29.4511 1180.92 35.1976 1133.17 35.204C1085.42 35.1976 1037.85 29.4511 991.47 18.088C898.536 -4.69557 801.474 -4.69557 708.54 18.088C662.163 29.4511 614.589 35.1976 566.84 35.204C519.091 35.1976 471.517 29.4511 425.14 18.088C332.206 -4.69561 235.144 -4.69561 142.21 18.088L0.617992 52.796C0.489805 52.8261 0.354893 52.8045 0.242554 52.7358C0.130214 52.6671 0.0495188 52.5568 0.0179917 52.429C-0.0122081 52.3009 0.00927667 52.1661 0.0777884 52.0538C0.1463 51.9415 0.256318 51.8607 0.383992 51.829L141.967 17.121C235.055 -5.69988 332.279 -5.69988 425.367 17.121C471.667 28.4639 519.163 34.1994 566.833 34.204C614.503 34.1978 662 28.4606 708.3 17.116C801.388 -5.70492 898.612 -5.70492 991.7 17.116C1038 28.4604 1085.5 34.1976 1133.17 34.204C1180.83 34.1976 1228.33 28.4604 1274.63 17.116C1367.72 -5.70488 1464.94 -5.70488 1558.03 17.116L1699.61 51.824C1699.73 51.8528 1699.84 51.9242 1699.91 52.0247C1699.97 52.1252 1700.01 52.2479 1699.99 52.3694C1699.98 52.4909 1699.92 52.6029 1699.83 52.6841C1699.73 52.7653 1699.62 52.8101 1699.49 52.81H1699.5Z" fill="white"/>
</svg>
